<mxfile host="app.diagrams.net" modified="2023-11-18T03:46:09.384Z" agent="Mozilla/5.0 (Windows NT 10.0; Win64; x64) AppleWebKit/537.36 (KHTML, like Gecko) Chrome/119.0.0.0 Safari/537.36" etag="tSoVD_ulA7eQhnmAyPnZ" version="22.1.3" type="device">
  <diagram name="Page-1" id="SSDiFUy0dXaUOH_6wfW2">
    <mxGraphModel dx="565" dy="385" grid="1" gridSize="10" guides="1" tooltips="1" connect="1" arrows="1" fold="1" page="1" pageScale="1" pageWidth="827" pageHeight="1169" math="0" shadow="0">
      <root>
        <mxCell id="0" />
        <mxCell id="1" parent="0" />
        <mxCell id="7rdPPtHDm0Rqt1_CYC4n-75" value="&lt;span style=&quot;color: rgb(0, 0, 0); font-style: normal; font-variant-ligatures: normal; font-variant-caps: normal; font-weight: 400; letter-spacing: normal; orphans: 2; text-align: center; text-indent: 0px; text-transform: none; widows: 2; word-spacing: 0px; -webkit-text-stroke-width: 0px; background-color: rgb(251, 251, 251); text-decoration-thickness: initial; text-decoration-style: initial; text-decoration-color: initial; float: none; display: inline !important;&quot;&gt;&lt;font style=&quot;font-size: 18px;&quot;&gt;âˆž&lt;/font&gt;&lt;/span&gt;" style="text;whiteSpace=wrap;html=1;fontSize=16;fontFamily=Comic Sans MS;" parent="1" vertex="1">
          <mxGeometry x="383" y="134" width="20" height="2" as="geometry" />
        </mxCell>
        <mxCell id="7rdPPtHDm0Rqt1_CYC4n-3" value="" style="ellipse;whiteSpace=wrap;html=1;aspect=fixed;fontSize=16;fillStyle=auto;fillColor=#FFFFFF;strokeWidth=1.5;" parent="1" vertex="1">
          <mxGeometry x="140" y="143" width="200" height="200" as="geometry" />
        </mxCell>
        <mxCell id="7rdPPtHDm0Rqt1_CYC4n-41" value="" style="rounded=0;whiteSpace=wrap;html=1;fontSize=16;fillColor=#d0fbf0;strokeColor=#6c8ebf;strokeWidth=0.5;spacingLeft=0;opacity=35;" parent="1" vertex="1">
          <mxGeometry x="282" y="155" width="5" height="84" as="geometry" />
        </mxCell>
        <mxCell id="7rdPPtHDm0Rqt1_CYC4n-1" value="" style="endArrow=classic;html=1;rounded=0;fontSize=12;startSize=8;endSize=8;curved=1;strokeWidth=1.5;endFill=0;" parent="1" edge="1">
          <mxGeometry width="50" height="50" relative="1" as="geometry">
            <mxPoint x="239" y="240" as="sourcePoint" />
            <mxPoint x="370" y="240" as="targetPoint" />
          </mxGeometry>
        </mxCell>
        <mxCell id="7rdPPtHDm0Rqt1_CYC4n-2" value="" style="endArrow=classic;html=1;rounded=0;fontSize=12;startSize=8;endSize=8;curved=1;strokeWidth=1.5;endFill=0;" parent="1" edge="1">
          <mxGeometry width="50" height="50" relative="1" as="geometry">
            <mxPoint x="239" y="240" as="sourcePoint" />
            <mxPoint x="239" y="116" as="targetPoint" />
          </mxGeometry>
        </mxCell>
        <mxCell id="7rdPPtHDm0Rqt1_CYC4n-8" value="" style="rounded=0;whiteSpace=wrap;html=1;fontSize=16;fillColor=#d0fbee;strokeColor=#6c8ebf;strokeWidth=0.5;spacingLeft=0;fillStyle=auto;" parent="1" vertex="1">
          <mxGeometry x="240" y="143.5" width="5" height="95.5" as="geometry" />
        </mxCell>
        <mxCell id="7rdPPtHDm0Rqt1_CYC4n-11" value="o" style="text;strokeColor=none;fillColor=none;html=1;align=center;verticalAlign=middle;whiteSpace=wrap;rounded=0;fontSize=16;" parent="1" vertex="1">
          <mxGeometry x="223" y="234" width="20" height="20" as="geometry" />
        </mxCell>
        <mxCell id="7rdPPtHDm0Rqt1_CYC4n-12" value="" style="rounded=0;whiteSpace=wrap;html=1;fontSize=16;fillColor=#d0fbf0;strokeColor=#6c8ebf;strokeWidth=0.5;spacingLeft=0;" parent="1" vertex="1">
          <mxGeometry x="246" y="144" width="5" height="95" as="geometry" />
        </mxCell>
        <mxCell id="7rdPPtHDm0Rqt1_CYC4n-13" value="" style="rounded=0;whiteSpace=wrap;html=1;fontSize=16;fillColor=#d0fbf0;strokeColor=#6c8ebf;strokeWidth=0.5;spacingLeft=0;" parent="1" vertex="1">
          <mxGeometry x="252" y="145" width="5" height="94" as="geometry" />
        </mxCell>
        <mxCell id="7rdPPtHDm0Rqt1_CYC4n-14" value="&lt;font color=&quot;#ff3333&quot; style=&quot;font-size: 11px;&quot;&gt;R&lt;/font&gt;" style="text;strokeColor=none;fillColor=none;html=1;align=center;verticalAlign=middle;whiteSpace=wrap;rounded=0;fontSize=16;fontFamily=Comic Sans MS;" parent="1" vertex="1">
          <mxGeometry x="178" y="221" width="20" height="19" as="geometry" />
        </mxCell>
        <mxCell id="7rdPPtHDm0Rqt1_CYC4n-16" value="" style="rounded=0;whiteSpace=wrap;html=1;fontSize=16;fillColor=#d0fbf0;strokeColor=#6c8ebf;strokeWidth=0.5;spacingLeft=0;" parent="1" vertex="1">
          <mxGeometry x="258" y="146" width="5" height="93" as="geometry" />
        </mxCell>
        <mxCell id="7rdPPtHDm0Rqt1_CYC4n-17" value="" style="rounded=0;whiteSpace=wrap;html=1;fontSize=16;fillColor=#d0fbf0;strokeColor=#6c8ebf;strokeWidth=0.5;spacingLeft=0;" parent="1" vertex="1">
          <mxGeometry x="264" y="148" width="5" height="91" as="geometry" />
        </mxCell>
        <mxCell id="7rdPPtHDm0Rqt1_CYC4n-18" value="" style="rounded=0;whiteSpace=wrap;html=1;fontSize=16;fillColor=#d0fbf0;strokeColor=#6c8ebf;strokeWidth=0.5;spacingLeft=0;" parent="1" vertex="1">
          <mxGeometry x="270" y="150" width="5" height="89" as="geometry" />
        </mxCell>
        <mxCell id="7rdPPtHDm0Rqt1_CYC4n-21" value="" style="rounded=0;whiteSpace=wrap;html=1;fontSize=16;fillColor=#d0fbf0;strokeColor=#6c8ebf;strokeWidth=0.5;spacingLeft=0;" parent="1" vertex="1">
          <mxGeometry x="276" y="152" width="5" height="87" as="geometry" />
        </mxCell>
        <mxCell id="7rdPPtHDm0Rqt1_CYC4n-22" value="&lt;font style=&quot;font-size: 11px;&quot;&gt;(x&lt;/font&gt;&lt;font style=&quot;font-size: 8.33333px;&quot;&gt;&lt;sub&gt;i&lt;/sub&gt;&lt;/font&gt;&lt;font style=&quot;&quot;&gt;,&lt;span style=&quot;font-size: 11px;&quot;&gt;y&lt;/span&gt;&lt;span style=&quot;font-size: 8.33333px;&quot;&gt;&lt;sub&gt;i&lt;/sub&gt;&lt;/span&gt;&lt;span style=&quot;font-size: 11px;&quot;&gt;)&lt;/span&gt;&lt;/font&gt;" style="text;strokeColor=none;fillColor=none;html=1;align=center;verticalAlign=middle;whiteSpace=wrap;rounded=0;fontSize=16;fontColor=#7EA6E0;fontFamily=Comic Sans MS;" parent="1" vertex="1">
          <mxGeometry x="276" y="136" width="39" height="12" as="geometry" />
        </mxCell>
        <mxCell id="7rdPPtHDm0Rqt1_CYC4n-23" value="" style="shape=crossbar;whiteSpace=wrap;html=1;rounded=1;fontSize=16;fillColor=#007FFF;strokeColor=#7EA6E0;" parent="1" vertex="1">
          <mxGeometry x="239" y="241" width="42" height="3" as="geometry" />
        </mxCell>
        <mxCell id="7rdPPtHDm0Rqt1_CYC4n-24" value="" style="shape=crossbar;whiteSpace=wrap;html=1;rounded=1;fontSize=16;rotation=-90;strokeColor=#7EA6E0;" parent="1" vertex="1">
          <mxGeometry x="240" y="196" width="86" height="2" as="geometry" />
        </mxCell>
        <mxCell id="7rdPPtHDm0Rqt1_CYC4n-28" value="" style="endArrow=classicThin;html=1;rounded=0;fontSize=12;startSize=8;endSize=4;curved=1;strokeColor=default;strokeWidth=1;endFill=1;exitX=0.443;exitY=0.977;exitDx=0;exitDy=0;exitPerimeter=0;" parent="1" source="7rdPPtHDm0Rqt1_CYC4n-8" edge="1">
          <mxGeometry width="50" height="50" relative="1" as="geometry">
            <mxPoint x="240" y="240" as="sourcePoint" />
            <mxPoint x="242" y="257" as="targetPoint" />
          </mxGeometry>
        </mxCell>
        <mxCell id="7rdPPtHDm0Rqt1_CYC4n-29" value="&lt;font size=&quot;1&quot;&gt;S&lt;sub&gt;1&lt;/sub&gt;&lt;/font&gt;" style="text;html=1;strokeColor=none;fillColor=none;align=center;verticalAlign=middle;whiteSpace=wrap;rounded=0;fontSize=16;fontFamily=Comic Sans MS;" parent="1" vertex="1">
          <mxGeometry x="230.75" y="253" width="25.5" height="10" as="geometry" />
        </mxCell>
        <mxCell id="7rdPPtHDm0Rqt1_CYC4n-30" value="" style="ellipse;whiteSpace=wrap;html=1;aspect=fixed;fontSize=16;fillColor=#000000;" parent="1" vertex="1">
          <mxGeometry x="281" y="151" width="2" height="2" as="geometry" />
        </mxCell>
        <mxCell id="7rdPPtHDm0Rqt1_CYC4n-31" value="&lt;font style=&quot;&quot;&gt;&lt;span style=&quot;font-size: 11px;&quot;&gt;y&lt;/span&gt;&lt;span style=&quot;font-size: 8.33333px;&quot;&gt;&lt;sub&gt;i&lt;/sub&gt;&lt;/span&gt;&lt;/font&gt;" style="text;strokeColor=none;fillColor=none;html=1;align=center;verticalAlign=middle;whiteSpace=wrap;rounded=0;fontSize=16;fontColor=#7EA6E0;fontFamily=Comic Sans MS;" parent="1" vertex="1">
          <mxGeometry x="278.5" y="186" width="19" height="15" as="geometry" />
        </mxCell>
        <mxCell id="7rdPPtHDm0Rqt1_CYC4n-32" value="&lt;font style=&quot;&quot;&gt;&lt;span style=&quot;font-size: 11px;&quot;&gt;x&lt;/span&gt;&lt;span style=&quot;font-size: 8.33333px;&quot;&gt;&lt;sub&gt;i&lt;/sub&gt;&lt;/span&gt;&lt;/font&gt;" style="text;strokeColor=none;fillColor=none;html=1;align=center;verticalAlign=middle;whiteSpace=wrap;rounded=0;fontSize=16;fontColor=#7EA6E0;fontFamily=Comic Sans MS;" parent="1" vertex="1">
          <mxGeometry x="255" y="237" width="19" height="15" as="geometry" />
        </mxCell>
        <mxCell id="7rdPPtHDm0Rqt1_CYC4n-34" style="edgeStyle=none;curved=1;rounded=0;orthogonalLoop=1;jettySize=auto;html=1;entryX=0.707;entryY=0.05;entryDx=0;entryDy=0;fontSize=12;startSize=8;endSize=4;dashed=1;dashPattern=1 1;strokeColor=#FF0000;entryPerimeter=0;" parent="1" target="7rdPPtHDm0Rqt1_CYC4n-3" edge="1">
          <mxGeometry relative="1" as="geometry">
            <mxPoint x="240" y="240" as="sourcePoint" />
            <mxPoint x="179" y="182" as="targetPoint" />
          </mxGeometry>
        </mxCell>
        <mxCell id="7rdPPtHDm0Rqt1_CYC4n-42" value="" style="rounded=0;whiteSpace=wrap;html=1;fontSize=16;fillColor=#d0fbf0;strokeColor=#6c8ebf;strokeWidth=0.5;spacingLeft=0;opacity=35;" parent="1" vertex="1">
          <mxGeometry x="288" y="159" width="5" height="80" as="geometry" />
        </mxCell>
        <mxCell id="7rdPPtHDm0Rqt1_CYC4n-43" value="" style="rounded=0;whiteSpace=wrap;html=1;fontSize=16;fillColor=#d0fbf0;strokeColor=#6c8ebf;strokeWidth=0.5;spacingLeft=0;opacity=35;" parent="1" vertex="1">
          <mxGeometry x="294" y="162" width="5" height="77" as="geometry" />
        </mxCell>
        <mxCell id="7rdPPtHDm0Rqt1_CYC4n-44" value="" style="rounded=0;whiteSpace=wrap;html=1;fontSize=16;fillColor=#d0fbf0;strokeColor=#6c8ebf;strokeWidth=0.5;spacingLeft=0;opacity=35;" parent="1" vertex="1">
          <mxGeometry x="300" y="167" width="5" height="72" as="geometry" />
        </mxCell>
        <mxCell id="7rdPPtHDm0Rqt1_CYC4n-45" value="" style="rounded=0;whiteSpace=wrap;html=1;fontSize=16;fillColor=#d0fbf0;strokeColor=#6c8ebf;strokeWidth=0.5;spacingLeft=0;opacity=35;" parent="1" vertex="1">
          <mxGeometry x="306" y="173" width="5" height="66" as="geometry" />
        </mxCell>
        <mxCell id="7rdPPtHDm0Rqt1_CYC4n-46" value="" style="rounded=0;whiteSpace=wrap;html=1;fontSize=16;fillColor=#d0fbf0;strokeColor=#6c8ebf;strokeWidth=0.5;spacingLeft=0;opacity=35;" parent="1" vertex="1">
          <mxGeometry x="312" y="178" width="5" height="61" as="geometry" />
        </mxCell>
        <mxCell id="7rdPPtHDm0Rqt1_CYC4n-49" value="&lt;span style=&quot;font-size: 11px;&quot;&gt;...&lt;/span&gt;" style="text;strokeColor=none;fillColor=none;html=1;align=center;verticalAlign=middle;whiteSpace=wrap;rounded=0;fontSize=16;" parent="1" vertex="1">
          <mxGeometry x="313" y="211" width="19" height="15" as="geometry" />
        </mxCell>
        <mxCell id="7rdPPtHDm0Rqt1_CYC4n-51" value="" style="rounded=0;whiteSpace=wrap;html=1;fontSize=16;strokeColor=none;" parent="1" vertex="1">
          <mxGeometry x="140" y="290" width="194" height="60" as="geometry" />
        </mxCell>
        <mxCell id="7rdPPtHDm0Rqt1_CYC4n-52" value="" style="rounded=0;whiteSpace=wrap;html=1;fontSize=16;strokeColor=none;" parent="1" vertex="1">
          <mxGeometry x="126" y="240" width="32" height="60" as="geometry" />
        </mxCell>
        <mxCell id="7rdPPtHDm0Rqt1_CYC4n-53" value="" style="rounded=0;whiteSpace=wrap;html=1;fontSize=16;strokeColor=none;" parent="1" vertex="1">
          <mxGeometry x="317" y="241" width="32" height="60" as="geometry" />
        </mxCell>
        <mxCell id="7rdPPtHDm0Rqt1_CYC4n-33" style="edgeStyle=none;curved=1;rounded=0;orthogonalLoop=1;jettySize=auto;html=1;fontSize=12;startSize=8;endSize=4;dashed=1;dashPattern=1 1;strokeColor=#FF0000;" parent="1" edge="1">
          <mxGeometry relative="1" as="geometry">
            <mxPoint x="240" y="240" as="sourcePoint" />
            <mxPoint x="140" y="240" as="targetPoint" />
          </mxGeometry>
        </mxCell>
        <mxCell id="7rdPPtHDm0Rqt1_CYC4n-54" value="x&lt;sub style=&quot;font-size: 11px;&quot;&gt;i&lt;/sub&gt;&lt;sup style=&quot;font-size: 11px;&quot;&gt;2&lt;/sup&gt;+y&lt;sub style=&quot;font-size: 11px;&quot;&gt;i&lt;/sub&gt;&lt;sup style=&quot;font-size: 11px;&quot;&gt;2&lt;/sup&gt;=R&lt;sup style=&quot;font-size: 11px;&quot;&gt;2&lt;/sup&gt;ï¼Œx&lt;sub style=&quot;border-color: var(--border-color);&quot;&gt;i&lt;/sub&gt;=i*R/N&lt;span style=&quot;font-size: 11px;&quot;&gt;&lt;br&gt;&lt;/span&gt;" style="text;html=1;strokeColor=none;fillColor=none;align=center;verticalAlign=middle;whiteSpace=wrap;rounded=0;fontSize=11;fontFamily=Comic Sans MS;" parent="1" vertex="1">
          <mxGeometry x="339" y="123" width="122" height="22" as="geometry" />
        </mxCell>
        <mxCell id="7rdPPtHDm0Rqt1_CYC4n-55" value="&lt;div style=&quot;text-align: left;&quot;&gt;&lt;span style=&quot;background-color: initial;&quot;&gt;PI*R&lt;/span&gt;&lt;sup style=&quot;background-color: initial; border-color: var(--border-color); font-size: 11px;&quot;&gt;2&lt;/sup&gt;&lt;span style=&quot;background-color: initial;&quot;&gt;/4&amp;nbsp; &amp;nbsp;S&lt;/span&gt;&lt;sub style=&quot;background-color: initial; border-color: var(--border-color); font-size: 11px;&quot;&gt;1&lt;/sub&gt;&lt;span style=&quot;background-color: initial;&quot;&gt;+...+S&lt;/span&gt;&lt;sub style=&quot;background-color: initial; border-color: var(--border-color); font-size: 11px;&quot;&gt;N&lt;/sub&gt;&lt;/div&gt;" style="text;html=1;strokeColor=none;fillColor=none;align=center;verticalAlign=middle;whiteSpace=wrap;rounded=0;fontSize=11;fontFamily=Comic Sans MS;" parent="1" vertex="1">
          <mxGeometry x="330.75" y="158" width="128.5" height="25" as="geometry" />
        </mxCell>
        <mxCell id="7rdPPtHDm0Rqt1_CYC4n-60" value="" style="endArrow=classicThin;html=1;rounded=0;fontSize=12;startSize=8;endSize=4;curved=1;strokeColor=default;strokeWidth=1;endFill=1;exitX=0.443;exitY=0.977;exitDx=0;exitDy=0;exitPerimeter=0;" parent="1" edge="1">
          <mxGeometry width="50" height="50" relative="1" as="geometry">
            <mxPoint x="279" y="235" as="sourcePoint" />
            <mxPoint x="279" y="256" as="targetPoint" />
          </mxGeometry>
        </mxCell>
        <mxCell id="7rdPPtHDm0Rqt1_CYC4n-61" value="&lt;font size=&quot;1&quot;&gt;S&lt;/font&gt;&lt;span style=&quot;font-size: 8.33333px;&quot;&gt;&lt;sub&gt;i&lt;/sub&gt;&lt;/span&gt;" style="text;html=1;strokeColor=none;fillColor=none;align=center;verticalAlign=middle;whiteSpace=wrap;rounded=0;fontSize=16;fontFamily=Comic Sans MS;" parent="1" vertex="1">
          <mxGeometry x="266.5" y="251" width="25.5" height="13" as="geometry" />
        </mxCell>
        <mxCell id="7rdPPtHDm0Rqt1_CYC4n-63" value="" style="rounded=0;whiteSpace=wrap;html=1;fontSize=16;fillColor=#d0fbf0;strokeColor=#6c8ebf;strokeWidth=0.5;spacingLeft=0;opacity=35;" parent="1" vertex="1">
          <mxGeometry x="334" y="224" width="5" height="15" as="geometry" />
        </mxCell>
        <mxCell id="7rdPPtHDm0Rqt1_CYC4n-67" value="" style="endArrow=classicThin;html=1;rounded=0;fontSize=12;startSize=8;endSize=4;curved=1;strokeColor=default;strokeWidth=1;endFill=1;exitX=0.443;exitY=0.977;exitDx=0;exitDy=0;exitPerimeter=0;" parent="1" edge="1">
          <mxGeometry width="50" height="50" relative="1" as="geometry">
            <mxPoint x="337" y="235" as="sourcePoint" />
            <mxPoint x="337" y="256" as="targetPoint" />
          </mxGeometry>
        </mxCell>
        <mxCell id="7rdPPtHDm0Rqt1_CYC4n-68" value="&lt;font size=&quot;1&quot;&gt;S&lt;/font&gt;&lt;span style=&quot;font-size: 6.94444px;&quot;&gt;N&lt;/span&gt;" style="text;html=1;strokeColor=none;fillColor=none;align=center;verticalAlign=middle;whiteSpace=wrap;rounded=0;fontSize=16;fontFamily=Comic Sans MS;" parent="1" vertex="1">
          <mxGeometry x="324.5" y="251" width="25.5" height="13" as="geometry" />
        </mxCell>
        <mxCell id="7rdPPtHDm0Rqt1_CYC4n-69" value="" style="shape=curlyBracket;whiteSpace=wrap;html=1;rounded=1;labelPosition=left;verticalLabelPosition=middle;align=right;verticalAlign=middle;fontSize=16;fontFamily=Comic Sans MS;" parent="1" vertex="1">
          <mxGeometry x="338" y="133" width="4" height="40" as="geometry" />
        </mxCell>
        <mxCell id="7rdPPtHDm0Rqt1_CYC4n-70" value="" style="rounded=0;whiteSpace=wrap;html=1;fontSize=16;fillColor=#d0fbf0;strokeColor=#6c8ebf;strokeWidth=0.5;spacingLeft=0;opacity=35;" parent="1" vertex="1">
          <mxGeometry x="328" y="210" width="5" height="29" as="geometry" />
        </mxCell>
        <mxCell id="7rdPPtHDm0Rqt1_CYC4n-72" value="N" style="text;html=1;strokeColor=none;fillColor=none;align=center;verticalAlign=middle;whiteSpace=wrap;rounded=0;fontSize=11;fontFamily=Comic Sans MS;" parent="1" vertex="1">
          <mxGeometry x="343" y="147" width="33" height="14" as="geometry" />
        </mxCell>
        <mxCell id="7rdPPtHDm0Rqt1_CYC4n-74" value="" style="endArrow=classicThin;html=1;rounded=0;fontSize=12;startSize=8;endSize=3;curved=1;endFill=1;fontFamily=Comic Sans MS;" parent="1" edge="1">
          <mxGeometry width="50" height="50" relative="1" as="geometry">
            <mxPoint x="366" y="153" as="sourcePoint" />
            <mxPoint x="383" y="153" as="targetPoint" />
          </mxGeometry>
        </mxCell>
        <mxCell id="7rdPPtHDm0Rqt1_CYC4n-78" value="&lt;font color=&quot;#ff3333&quot; style=&quot;font-size: 11px;&quot;&gt;R&lt;/font&gt;" style="text;strokeColor=none;fillColor=none;html=1;align=center;verticalAlign=middle;whiteSpace=wrap;rounded=0;fontSize=16;fontFamily=Comic Sans MS;" parent="1" vertex="1">
          <mxGeometry x="246" y="177" width="20" height="19" as="geometry" />
        </mxCell>
        <mxCell id="tKD3uDAYzgFoYKiTX-vM-1" value="&lt;span style=&quot;color: rgb(0, 0, 0); font-family: &amp;quot;Comic Sans MS&amp;quot;; font-style: normal; font-variant-ligatures: normal; font-variant-caps: normal; font-weight: 400; letter-spacing: normal; orphans: 2; text-align: center; text-indent: 0px; text-transform: none; widows: 2; word-spacing: 0px; -webkit-text-stroke-width: 0px; background-color: rgb(251, 251, 251); text-decoration-thickness: initial; text-decoration-style: initial; text-decoration-color: initial; float: none; display: inline !important;&quot;&gt;&lt;font style=&quot;font-size: 12px;&quot;&gt;â‰ˆ&lt;/font&gt;&lt;/span&gt;" style="text;whiteSpace=wrap;html=1;fontSize=16;" vertex="1" parent="1">
          <mxGeometry x="388" y="154" width="40" height="40" as="geometry" />
        </mxCell>
      </root>
    </mxGraphModel>
  </diagram>
</mxfile>
